<?xml version="1.0" standalone="no"?>
<!DOCTYPE svg PUBLIC "-//W3C//DTD SVG 20010904//EN"
 "http://www.w3.org/TR/2001/REC-SVG-20010904/DTD/svg10.dtd">
<svg version="1.0" xmlns="http://www.w3.org/2000/svg"
 width="33.000000pt" height="33.000000pt" viewBox="0 0 33.000000 33.000000"
 preserveAspectRatio="xMidYMid meet">

<g transform="translate(0.000000,33.000000) scale(0.100000,-0.100000)"
fill="#000000" stroke="none">
<path d="M117 310 c-46 -36 -43 -92 7 -132 20 -17 19 -18 -51 -18 -40 0 -73
-4 -73 -9 0 -4 9 -20 20 -34 36 -46 92 -43 132 7 17 20 18 19 18 -51 0 -40 4
-73 9 -73 4 0 20 9 34 20 46 36 43 92 -7 132 -20 17 -19 18 52 18 39 0 72 4
72 9 0 4 -9 20 -20 34 -36 46 -92 43 -132 -7 -17 -20 -18 -19 -18 52 0 39 -4
72 -9 72 -4 0 -20 -9 -34 -20z"/>
</g>
</svg>
